<svg xmlns="http://www.w3.org/2000/svg" viewBox="0 0 280 480" fill="none">
  <defs>
    <!-- Lissajous gradient along path -->
    <linearGradient id="lp-grad" x1="0%" y1="0%" x2="100%" y2="100%">
      <stop offset="0%" stop-color="#A78BFA"/>
      <stop offset="50%" stop-color="#06B6D4"/>
      <stop offset="100%" stop-color="#22C55E"/>
    </linearGradient>
    <linearGradient id="lp-grad-glow" x1="0%" y1="0%" x2="100%" y2="100%">
      <stop offset="0%" stop-color="#A78BFA" stop-opacity="0.4"/>
      <stop offset="50%" stop-color="#06B6D4" stop-opacity="0.4"/>
      <stop offset="100%" stop-color="#22C55E" stop-opacity="0.4"/>
    </linearGradient>
    <!-- Radial ambient glow -->
    <radialGradient id="lp-ambient" cx="50%" cy="38%" r="35%">
      <stop offset="0%" stop-color="#6366F1" stop-opacity="0.07"/>
      <stop offset="100%" stop-color="#6366F1" stop-opacity="0"/>
    </radialGradient>
    <!-- Heavy outer glow -->
    <filter id="lp-glow-outer" x="-40%" y="-40%" width="180%" height="180%">
      <feGaussianBlur stdDeviation="8"/>
    </filter>
    <!-- Medium glow for main path -->
    <filter id="lp-glow4" x="-30%" y="-30%" width="160%" height="160%">
      <feGaussianBlur stdDeviation="4" result="b"/>
      <feMerge><feMergeNode in="b"/><feMergeNode in="SourceGraphic"/></feMerge>
    </filter>
    <!-- Sine glow -->
    <filter id="lp-glow-sine" x="-20%" y="-60%" width="140%" height="220%">
      <feGaussianBlur stdDeviation="5"/>
    </filter>
    <!-- Particle bright glow -->
    <filter id="lp-bright" x="-300%" y="-300%" width="700%" height="700%">
      <feGaussianBlur stdDeviation="6"/>
    </filter>
    <!-- Small dot glow -->
    <filter id="lp-dot-glow" x="-200%" y="-200%" width="500%" height="500%">
      <feGaussianBlur stdDeviation="3"/>
    </filter>
  </defs>

  <!-- Background -->
  <rect width="280" height="480" fill="#0A0A1A"/>

  <!-- Radial ambient glow behind curves -->
  <ellipse cx="140" cy="180" rx="130" ry="120" fill="url(#lp-ambient)"/>

  <!-- Subtle grid reference lines -->
  <line x1="140" y1="0" x2="140" y2="480" stroke="#1E293B" stroke-width="0.3"/>
  <line x1="0" y1="180" x2="280" y2="180" stroke="#1E293B" stroke-width="0.3"/>

  <!-- Background particles / starfield (18 dots) -->
  <circle cx="23" cy="42" r="1.0" fill="#A78BFA" opacity="0.45"/>
  <circle cx="245" cy="28" r="1.4" fill="#06B6D4" opacity="0.35"/>
  <circle cx="58" cy="95" r="0.8" fill="#F472B6" opacity="0.50"/>
  <circle cx="210" cy="78" r="1.2" fill="#22C55E" opacity="0.30"/>
  <circle cx="32" cy="170" r="1.5" fill="#FCD34D" opacity="0.40"/>
  <circle cx="260" cy="155" r="1.0" fill="#A78BFA" opacity="0.55"/>
  <circle cx="15" cy="290" r="1.3" fill="#06B6D4" opacity="0.35"/>
  <circle cx="265" cy="320" r="0.9" fill="#F472B6" opacity="0.50"/>
  <circle cx="48" cy="340" r="1.1" fill="#22C55E" opacity="0.40"/>
  <circle cx="230" cy="350" r="1.4" fill="#A78BFA" opacity="0.30"/>
  <circle cx="120" cy="55" r="1.0" fill="#06B6D4" opacity="0.45"/>
  <circle cx="180" cy="420" r="1.2" fill="#FCD34D" opacity="0.35"/>
  <circle cx="75" cy="440" r="0.8" fill="#F472B6" opacity="0.55"/>
  <circle cx="195" cy="135" r="1.5" fill="#22C55E" opacity="0.30"/>
  <circle cx="100" cy="310" r="1.0" fill="#A78BFA" opacity="0.40"/>
  <circle cx="250" cy="240" r="1.3" fill="#06B6D4" opacity="0.50"/>
  <circle cx="40" cy="230" r="0.9" fill="#FCD34D" opacity="0.45"/>
  <circle cx="155" cy="15" r="1.1" fill="#F472B6" opacity="0.35"/>

  <!-- ================================================ -->
  <!-- MAIN LISSAJOUS: x=140+95*sin(3t), y=180-105*cos(2t) -->
  <!-- A:3  B:2  delta:pi/2  |  120 samples, t in [0,2pi]  -->
  <!-- ================================================ -->

  <!-- Lissajous outer glow (blurred, semi-transparent) -->
  <path filter="url(#lp-glow-outer)" opacity="0.40" stroke="url(#lp-grad-glow)" stroke-width="7" fill="none" stroke-linecap="round" stroke-linejoin="round" d="
    M140.0,75.0
    L154.9,75.6 L169.4,77.3 L183.1,80.1 L195.8,84.1 L207.2,89.1 L216.9,95.1
    L224.6,102.0 L230.4,109.7 L233.8,118.3 L235.0,127.5 L233.8,137.3 L230.4,147.6
    L224.6,158.2 L216.9,169.0 L207.2,180.0 L195.8,191.0 L183.1,201.8 L169.4,212.4
    L154.9,222.7 L140.0,232.5 L125.1,241.7 L110.6,250.3 L96.9,258.0 L84.2,264.9
    L72.8,270.9 L63.1,275.9 L55.4,279.9 L49.6,282.7 L46.2,284.4 L45.0,285.0
    L46.2,284.4 L49.6,282.7 L55.4,279.9 L63.1,275.9 L72.8,270.9 L84.2,264.9
    L96.9,258.0 L110.6,250.3 L125.1,241.7 L140.0,232.5 L154.9,222.7 L169.4,212.4
    L183.1,201.8 L195.8,191.0 L207.2,180.0 L216.9,169.0 L224.6,158.2 L230.4,147.6
    L233.8,137.3 L235.0,127.5 L233.8,118.3 L230.4,109.7 L224.6,102.0 L216.9,95.1
    L207.2,89.1 L195.8,84.1 L183.1,80.1 L169.4,77.3 L154.9,75.6 L140.0,75.0
    L125.1,75.6 L110.6,77.3 L96.9,80.1 L84.2,84.1 L72.8,89.1 L63.1,95.1
    L55.4,102.0 L49.6,109.7 L46.2,118.3 L45.0,127.5 L46.2,137.3 L49.6,147.6
    L55.4,158.2 L63.1,169.0 L72.8,180.0 L84.2,191.0 L96.9,201.8 L110.6,212.4
    L125.1,222.7 L140.0,232.5 L154.9,241.7 L169.4,250.3 L183.1,258.0 L195.8,264.9
    L207.2,270.9 L216.9,275.9 L224.6,279.9 L230.4,282.7 L233.8,284.4 L235.0,285.0
    L233.8,284.4 L230.4,282.7 L224.6,279.9 L216.9,275.9 L207.2,270.9 L195.8,264.9
    L183.1,258.0 L169.4,250.3 L154.9,241.7 L140.0,232.5 L125.1,222.7 L110.6,212.4
    L96.9,201.8 L84.2,191.0 L72.8,180.0 L63.1,169.0 L55.4,158.2 L49.6,147.6
    L46.2,137.3 L45.0,127.5 L46.2,118.3 L49.6,109.7 L55.4,102.0 L63.1,95.1
    L72.8,89.1 L84.2,84.1 L96.9,80.1 L110.6,77.3 L125.1,75.6 L140.0,75.0
  "/>

  <!-- Lissajous main crisp stroke -->
  <g filter="url(#lp-glow4)">
    <path stroke="url(#lp-grad)" stroke-width="2.5" fill="none" stroke-linecap="round" stroke-linejoin="round" d="
      M140.0,75.0
      L154.9,75.6 L169.4,77.3 L183.1,80.1 L195.8,84.1 L207.2,89.1 L216.9,95.1
      L224.6,102.0 L230.4,109.7 L233.8,118.3 L235.0,127.5 L233.8,137.3 L230.4,147.6
      L224.6,158.2 L216.9,169.0 L207.2,180.0 L195.8,191.0 L183.1,201.8 L169.4,212.4
      L154.9,222.7 L140.0,232.5 L125.1,241.7 L110.6,250.3 L96.9,258.0 L84.2,264.9
      L72.8,270.9 L63.1,275.9 L55.4,279.9 L49.6,282.7 L46.2,284.4 L45.0,285.0
      L46.2,284.4 L49.6,282.7 L55.4,279.9 L63.1,275.9 L72.8,270.9 L84.2,264.9
      L96.9,258.0 L110.6,250.3 L125.1,241.7 L140.0,232.5 L154.9,222.7 L169.4,212.4
      L183.1,201.8 L195.8,191.0 L207.2,180.0 L216.9,169.0 L224.6,158.2 L230.4,147.6
      L233.8,137.3 L235.0,127.5 L233.8,118.3 L230.4,109.7 L224.6,102.0 L216.9,95.1
      L207.2,89.1 L195.8,84.1 L183.1,80.1 L169.4,77.3 L154.9,75.6 L140.0,75.0
      L125.1,75.6 L110.6,77.3 L96.9,80.1 L84.2,84.1 L72.8,89.1 L63.1,95.1
      L55.4,102.0 L49.6,109.7 L46.2,118.3 L45.0,127.5 L46.2,137.3 L49.6,147.6
      L55.4,158.2 L63.1,169.0 L72.8,180.0 L84.2,191.0 L96.9,201.8 L110.6,212.4
      L125.1,222.7 L140.0,232.5 L154.9,241.7 L169.4,250.3 L183.1,258.0 L195.8,264.9
      L207.2,270.9 L216.9,275.9 L224.6,279.9 L230.4,282.7 L233.8,284.4 L235.0,285.0
      L233.8,284.4 L230.4,282.7 L224.6,279.9 L216.9,275.9 L207.2,270.9 L195.8,264.9
      L183.1,258.0 L169.4,250.3 L154.9,241.7 L140.0,232.5 L125.1,222.7 L110.6,212.4
      L96.9,201.8 L84.2,191.0 L72.8,180.0 L63.1,169.0 L55.4,158.2 L49.6,147.6
      L46.2,137.3 L45.0,127.5 L46.2,118.3 L49.6,109.7 L55.4,102.0 L63.1,95.1
      L72.8,89.1 L84.2,84.1 L96.9,80.1 L110.6,77.3 L125.1,75.6 L140.0,75.0
    "/>
  </g>

  <!-- Ghost Lissajous (phase-shifted, rotated) for depth -->
  <g opacity="0.07" transform="rotate(12,140,180)">
    <path stroke="#A78BFA" stroke-width="1.5" fill="none" stroke-linecap="round" stroke-linejoin="round" d="
      M140.0,75.0 L183.1,80.1 L216.9,95.1 L235.0,127.5 L224.6,158.2 L195.8,191.0
      L154.9,222.7 L125.1,241.7 L84.2,264.9 L55.4,279.9 L45.0,285.0 L55.4,279.9
      L96.9,258.0 L140.0,232.5 L183.1,201.8 L216.9,169.0 L235.0,127.5 L216.9,95.1
      L183.1,80.1 L140.0,75.0 L96.9,80.1 L63.1,95.1 L45.0,127.5 L55.4,158.2
      L84.2,191.0 L125.1,222.7 L154.9,241.7 L195.8,264.9 L224.6,279.9 L235.0,285.0
      L224.6,279.9 L183.1,258.0 L140.0,232.5 L96.9,201.8 L63.1,169.0 L45.0,127.5
      L63.1,95.1 L96.9,80.1 L140.0,75.0
    "/>
  </g>

  <!-- Bright intersection nodes where paths cross -->
  <!-- Center crossing at (140, 180) -->
  <circle cx="140" cy="180" r="5" fill="#06B6D4" filter="url(#lp-dot-glow)" opacity="0.5"/>
  <circle cx="140" cy="180" r="2" fill="#FFFFFF" opacity="0.85"/>
  <!-- Top node (140, 75) -->
  <circle cx="140" cy="75" r="4" fill="#A78BFA" filter="url(#lp-dot-glow)" opacity="0.4"/>
  <circle cx="140" cy="75" r="1.5" fill="#FFFFFF" opacity="0.75"/>
  <!-- Crossing at (140, 232.5) -->
  <circle cx="140" cy="232.5" r="4" fill="#22C55E" filter="url(#lp-dot-glow)" opacity="0.4"/>
  <circle cx="140" cy="232.5" r="1.5" fill="#FFFFFF" opacity="0.75"/>
  <!-- Right cusp (235, 127.5) -->
  <circle cx="235" cy="127.5" r="3.5" fill="#06B6D4" filter="url(#lp-dot-glow)" opacity="0.35"/>
  <circle cx="235" cy="127.5" r="1.3" fill="#FFFFFF" opacity="0.7"/>
  <!-- Left cusp (45, 127.5) -->
  <circle cx="45" cy="127.5" r="3.5" fill="#A78BFA" filter="url(#lp-dot-glow)" opacity="0.35"/>
  <circle cx="45" cy="127.5" r="1.3" fill="#FFFFFF" opacity="0.7"/>
  <!-- Bottom-right cusp (235, 285) -->
  <circle cx="235" cy="285" r="3" fill="#22C55E" filter="url(#lp-dot-glow)" opacity="0.3"/>
  <circle cx="235" cy="285" r="1.2" fill="#FFFFFF" opacity="0.65"/>
  <!-- Bottom-left cusp (45, 285) -->
  <circle cx="45" cy="285" r="3" fill="#06B6D4" filter="url(#lp-dot-glow)" opacity="0.3"/>
  <circle cx="45" cy="285" r="1.2" fill="#FFFFFF" opacity="0.65"/>

  <!-- Secondary: faint spiral trace (top right) -->
  <g opacity="0.15" filter="url(#lp-glow4)">
    <path d="
      M222,55 C230,50 236,56 234,64 C232,72 224,76 218,72 C212,68 212,60 218,54
      C224,48 234,48 238,56 C242,64 238,76 230,82 C222,88 210,86 206,78
      C202,70 206,58 214,52 C222,46 234,44 242,52
    " stroke="#A78BFA" stroke-width="1" fill="none" stroke-linecap="round"/>
  </g>

  <!-- Secondary: faint helix trace (left side) -->
  <g opacity="0.10" filter="url(#lp-glow4)">
    <path d="
      M32,115 C38,108 48,108 48,118 C48,128 38,128 38,138 C38,148 48,148 48,158
      C48,168 38,168 38,178 C38,188 48,188 48,198 C48,208 38,208 38,218
    " stroke="#22C55E" stroke-width="0.8" fill="none" stroke-linecap="round"/>
  </g>

  <!-- ============================================ -->
  <!-- SINE WAVE (bottom band, centered at y=380)   -->
  <!-- 3.5 cycles, amplitude 25px                   -->
  <!-- ============================================ -->

  <!-- Sine glow layer -->
  <path filter="url(#lp-glow-sine)" opacity="0.30" stroke="#F472B6" stroke-width="5" fill="none" stroke-linecap="round" stroke-linejoin="round" d="
    M10.0,380.0
    L14.1,388.4 L18.1,395.9 L22.2,401.4 L26.2,404.5 L30.3,404.7 L34.4,402.0 L38.4,396.8 L42.5,389.6
    L46.6,381.2 L50.6,372.7 L54.7,365.1 L58.8,359.2 L62.8,355.7 L66.9,355.1 L70.9,357.4 L75.0,362.3
    L79.1,369.3 L83.1,377.5 L87.2,386.1 L91.2,393.9 L95.3,400.1 L99.4,403.9 L103.4,405.0 L107.5,403.1
    L111.6,398.5 L115.6,391.8 L119.7,383.7 L123.8,375.1 L127.8,367.1 L131.9,360.7 L135.9,356.5 L140.0,355.0
    L144.1,356.5 L148.1,360.7 L152.2,367.1 L156.2,375.1 L160.3,383.7 L164.4,391.8 L168.4,398.5 L172.5,403.1
    L176.6,405.0 L180.6,403.9 L184.7,400.1 L188.8,393.9 L192.8,386.1 L196.9,377.5 L200.9,369.3 L205.0,362.3
    L209.1,357.4 L213.1,355.1 L217.2,355.7 L221.2,359.2 L225.3,365.1 L229.4,372.7 L233.4,381.2 L237.5,389.6
    L241.6,396.8 L245.6,402.0 L249.7,404.7 L253.8,404.5 L257.8,401.4 L261.9,395.9 L265.9,388.4 L270.0,380.0
  "/>

  <!-- Sine wave main stroke -->
  <path stroke="#F472B6" stroke-width="2" fill="none" stroke-linecap="round" stroke-linejoin="round" d="
    M10.0,380.0
    L14.1,388.4 L18.1,395.9 L22.2,401.4 L26.2,404.5 L30.3,404.7 L34.4,402.0 L38.4,396.8 L42.5,389.6
    L46.6,381.2 L50.6,372.7 L54.7,365.1 L58.8,359.2 L62.8,355.7 L66.9,355.1 L70.9,357.4 L75.0,362.3
    L79.1,369.3 L83.1,377.5 L87.2,386.1 L91.2,393.9 L95.3,400.1 L99.4,403.9 L103.4,405.0 L107.5,403.1
    L111.6,398.5 L115.6,391.8 L119.7,383.7 L123.8,375.1 L127.8,367.1 L131.9,360.7 L135.9,356.5 L140.0,355.0
    L144.1,356.5 L148.1,360.7 L152.2,367.1 L156.2,375.1 L160.3,383.7 L164.4,391.8 L168.4,398.5 L172.5,403.1
    L176.6,405.0 L180.6,403.9 L184.7,400.1 L188.8,393.9 L192.8,386.1 L196.9,377.5 L200.9,369.3 L205.0,362.3
    L209.1,357.4 L213.1,355.1 L217.2,355.7 L221.2,359.2 L225.3,365.1 L229.4,372.7 L233.4,381.2 L237.5,389.6
    L241.6,396.8 L245.6,402.0 L249.7,404.7 L253.8,404.5 L257.8,401.4 L261.9,395.9 L265.9,388.4 L270.0,380.0
  "/>

  <!-- Second harmonic (faint half-frequency sine for depth) -->
  <path stroke="#F472B6" stroke-width="0.7" fill="none" stroke-linecap="round" opacity="0.20" d="
    M10,380 C75,362 120,362 140,380 C160,398 205,398 270,380
  "/>

  <!-- Traveling particle on sine wave (bright white dot) -->
  <circle cx="160.3" cy="383.7" r="8" fill="#F472B6" filter="url(#lp-bright)" opacity="0.45"/>
  <circle cx="160.3" cy="383.7" r="3.5" fill="#F472B6" opacity="0.7"/>
  <circle cx="160.3" cy="383.7" r="2" fill="#FFFFFF" opacity="0.95"/>

  <!-- Trailing particle -->
  <circle cx="123.8" cy="375.1" r="5" fill="#F472B6" filter="url(#lp-bright)" opacity="0.20"/>
  <circle cx="123.8" cy="375.1" r="1.3" fill="#FFFFFF" opacity="0.55"/>

  <!-- ============================================ -->
  <!-- UI: Top-left label                           -->
  <!-- ============================================ -->
  <text x="16" y="28" font-family="system-ui, -apple-system, sans-serif" font-size="12" fill="white" opacity="0.6" font-weight="500">Line Paths</text>

  <!-- ============================================ -->
  <!-- UI: Parameter display                        -->
  <!-- ============================================ -->
  <text x="140" y="310" font-family="'SF Mono', 'Fira Code', monospace, 'Courier New'" font-size="7" fill="#94A3B8" text-anchor="middle" letter-spacing="1.5">A:3  B:2  &#x3B4;:&#x3C0;/2</text>

  <!-- ============================================ -->
  <!-- UI: Toggle pills at bottom                  -->
  <!-- ============================================ -->
  <g transform="translate(52, 432)">
    <!-- Selected: Lissajous -->
    <rect x="0" y="0" width="56" height="20" rx="10" fill="#6750A4"/>
    <text x="28" y="13.5" font-family="system-ui, -apple-system, sans-serif" font-size="8" fill="white" text-anchor="middle" font-weight="600">Lissajous</text>

    <!-- Sine -->
    <rect x="62" y="0" width="40" height="20" rx="10" fill="none" stroke="#334155" stroke-width="0.5"/>
    <text x="82" y="13.5" font-family="system-ui, -apple-system, sans-serif" font-size="8" fill="#94A3B8" text-anchor="middle">Sine</text>

    <!-- Spiral -->
    <rect x="108" y="0" width="40" height="20" rx="10" fill="none" stroke="#334155" stroke-width="0.5"/>
    <text x="128" y="13.5" font-family="system-ui, -apple-system, sans-serif" font-size="8" fill="#94A3B8" text-anchor="middle">Spiral</text>
  </g>
</svg>