<svg xmlns="http://www.w3.org/2000/svg" viewBox="0 0 800 360" fill="none">
  <defs>
    <linearGradient id="v4-bg" x1="0" y1="0" x2="800" y2="360">
      <stop offset="0%" stop-color="#F5F3FF"/><stop offset="100%" stop-color="#EFF6FF"/>
    </linearGradient>
    <filter id="v4-shadow" x="-4%" y="-4%" width="108%" height="112%">
      <feDropShadow dx="0" dy="4" stdDeviation="6" flood-color="#7B61FF" flood-opacity="0.1"/>
    </filter>
  </defs>
  <rect width="800" height="360" rx="24" fill="url(#v4-bg)"/>

  <!-- Title -->
  <text x="400" y="32" font-family="system-ui" font-size="16" fill="#1A1A1A" text-anchor="middle" font-weight="800">SceneView 4.0 — Multi-Platform Architecture</text>

  <!-- App layer -->
  <rect x="100" y="54" width="600" height="44" rx="22" fill="white" stroke="#E9D5FF" stroke-width="1.5" filter="url(#v4-shadow)"/>
  <text x="400" y="82" font-family="system-ui" font-size="13" fill="#7B61FF" text-anchor="middle" font-weight="700">Your App — Jetpack Compose / SwiftUI</text>

  <!-- Arrow -->
  <line x1="400" y1="98" x2="400" y2="114" stroke="#C4B5FD" stroke-width="2"/>
  <polygon points="395,112 400,120 405,112" fill="#C4B5FD"/>

  <!-- SceneView API -->
  <rect x="50" y="120" width="700" height="52" rx="18" fill="#7B61FF" filter="url(#v4-shadow)"/>
  <text x="400" y="152" font-family="system-ui" font-size="14" fill="white" text-anchor="middle" font-weight="700">SceneView API — Scene { } · ARScene { } · XRScene { }</text>

  <!-- Arrow -->
  <line x1="400" y1="172" x2="400" y2="188" stroke="#C4B5FD" stroke-width="2"/>
  <polygon points="395,186 400,194 405,186" fill="#C4B5FD"/>

  <!-- Middle layer — three columns -->
  <!-- sceneview-core (KMP) -->
  <rect x="50" y="194" width="220" height="70" rx="16" fill="white" stroke="#0D9488" stroke-width="1.5" filter="url(#v4-shadow)"/>
  <text x="160" y="218" font-family="system-ui" font-size="11" fill="#0D9488" text-anchor="middle" font-weight="700">sceneview-core (KMP)</text>
  <text x="160" y="236" font-family="system-ui" font-size="9" fill="#64748B" text-anchor="middle">Math · Collision · Physics</text>
  <text x="160" y="250" font-family="system-ui" font-size="9" fill="#64748B" text-anchor="middle">Animation · Geometry · Scene</text>

  <!-- sceneview (Android) -->
  <rect x="290" y="194" width="220" height="70" rx="16" fill="white" stroke="#7B61FF" stroke-width="1.5" filter="url(#v4-shadow)"/>
  <text x="400" y="218" font-family="system-ui" font-size="11" fill="#7B61FF" text-anchor="middle" font-weight="700">sceneview (Android)</text>
  <text x="400" y="236" font-family="system-ui" font-size="9" fill="#64748B" text-anchor="middle">26+ Nodes · Compose · Gestures</text>
  <text x="400" y="250" font-family="system-ui" font-size="9" fill="#64748B" text-anchor="middle">Loaders · Materials · Camera</text>

  <!-- arsceneview -->
  <rect x="530" y="194" width="220" height="70" rx="16" fill="white" stroke="#F472B6" stroke-width="1.5" filter="url(#v4-shadow)"/>
  <text x="640" y="218" font-family="system-ui" font-size="11" fill="#F472B6" text-anchor="middle" font-weight="700">arsceneview (AR)</text>
  <text x="640" y="236" font-family="system-ui" font-size="9" fill="#64748B" text-anchor="middle">ARCore · Anchors · Planes</text>
  <text x="640" y="250" font-family="system-ui" font-size="9" fill="#64748B" text-anchor="middle">Images · Faces · Cloud</text>

  <!-- Arrows down -->
  <line x1="160" y1="264" x2="160" y2="278" stroke="#A7F3D0" stroke-width="2"/>
  <polygon points="155,276 160,284 165,276" fill="#A7F3D0"/>
  <line x1="400" y1="264" x2="400" y2="278" stroke="#C4B5FD" stroke-width="2"/>
  <polygon points="395,276 400,284 405,276" fill="#C4B5FD"/>
  <line x1="640" y1="264" x2="640" y2="278" stroke="#FBCFE8" stroke-width="2"/>
  <polygon points="635,276 640,284 645,276" fill="#FBCFE8"/>

  <!-- Platform layer -->
  <rect x="50" y="284" width="140" height="40" rx="14" fill="#CCFBF1" stroke="#0D9488" stroke-width="1"/>
  <text x="120" y="308" font-family="system-ui" font-size="10" fill="#0D9488" text-anchor="middle" font-weight="600">kotlin-math</text>

  <rect x="200" y="284" width="120" height="40" rx="14" fill="#EDE9FE" stroke="#7B61FF" stroke-width="1"/>
  <text x="260" y="308" font-family="system-ui" font-size="10" fill="#7B61FF" text-anchor="middle" font-weight="600">Filament</text>

  <rect x="330" y="284" width="120" height="40" rx="14" fill="#EDE9FE" stroke="#7B61FF" stroke-width="1"/>
  <text x="390" y="308" font-family="system-ui" font-size="10" fill="#7B61FF" text-anchor="middle" font-weight="600">Compose UI</text>

  <rect x="460" y="284" width="120" height="40" rx="14" fill="#DBEAFE" stroke="#3B82F6" stroke-width="1"/>
  <text x="520" y="308" font-family="system-ui" font-size="10" fill="#3B82F6" text-anchor="middle" font-weight="600">Metal / OpenGL</text>

  <rect x="590" y="284" width="120" height="40" rx="14" fill="#FFF1F2" stroke="#F472B6" stroke-width="1"/>
  <text x="650" y="308" font-family="system-ui" font-size="10" fill="#F472B6" text-anchor="middle" font-weight="600">ARCore</text>

  <!-- Platform icons bar -->
  <g transform="translate(160, 340)">
    <rect x="0" y="0" width="60" height="18" rx="9" fill="#DCFCE7"/>
    <text x="30" y="13" font-family="system-ui" font-size="8" fill="#166534" text-anchor="middle" font-weight="600">Android</text>
    <rect x="68" y="0" width="40" height="18" rx="9" fill="#FFF1F2"/>
    <text x="88" y="13" font-family="system-ui" font-size="8" fill="#BE185D" text-anchor="middle" font-weight="600">iOS</text>
    <rect x="116" y="0" width="40" height="18" rx="9" fill="#EDE9FE"/>
    <text x="136" y="13" font-family="system-ui" font-size="8" fill="#7B61FF" text-anchor="middle" font-weight="600">XR</text>
    <rect x="164" y="0" width="40" height="18" rx="9" fill="#ECFEFF"/>
    <text x="184" y="13" font-family="system-ui" font-size="8" fill="#0891B2" text-anchor="middle" font-weight="600">TV</text>
    <rect x="212" y="0" width="50" height="18" rx="9" fill="#FEF3C7"/>
    <text x="237" y="13" font-family="system-ui" font-size="8" fill="#92400E" text-anchor="middle" font-weight="600">Auto</text>
    <rect x="270" y="0" width="60" height="18" rx="9" fill="#F0F9FF"/>
    <text x="300" y="13" font-family="system-ui" font-size="8" fill="#0369A1" text-anchor="middle" font-weight="600">Desktop</text>
  </g>
</svg>
