<svg xmlns="http://www.w3.org/2000/svg" viewBox="0 0 800 420" fill="none">
  <defs>
    <linearGradient id="med-bg" x1="0" y1="0" x2="800" y2="420">
      <stop offset="0%" stop-color="#F0FDFA"/>
      <stop offset="50%" stop-color="#F0F9FF"/>
      <stop offset="100%" stop-color="#F5F3FF"/>
    </linearGradient>
    <linearGradient id="med-heart" x1="0" y1="0" x2="1" y2="1">
      <stop offset="0%" stop-color="#EF4444"/>
      <stop offset="50%" stop-color="#DC2626"/>
      <stop offset="100%" stop-color="#B91C1C"/>
    </linearGradient>
    <linearGradient id="med-organ" x1="0" y1="0" x2="1" y2="1">
      <stop offset="0%" stop-color="#F87171"/>
      <stop offset="50%" stop-color="#EF4444"/>
      <stop offset="100%" stop-color="#DC2626"/>
    </linearGradient>
    <linearGradient id="med-btn" x1="0" y1="0" x2="1" y2="0">
      <stop offset="0%" stop-color="#0D9488"/>
      <stop offset="100%" stop-color="#06B6D4"/>
    </linearGradient>
    <filter id="med-shadow" x="-8%" y="-6%" width="116%" height="120%">
      <feDropShadow dx="0" dy="8" stdDeviation="12" flood-color="#0D9488" flood-opacity="0.12"/>
    </filter>
    <filter id="med-glow" x="-15%" y="-15%" width="130%" height="130%">
      <feGaussianBlur stdDeviation="4" result="blur"/>
      <feMerge><feMergeNode in="blur"/><feMergeNode in="SourceGraphic"/></feMerge>
    </filter>
    <clipPath id="med-tab-clip"><rect x="42" y="38" width="336" height="244" rx="4"/></clipPath>
    <clipPath id="med-phone-clip"><rect x="552" y="58" width="176" height="304" rx="4"/></clipPath>
  </defs>

  <rect width="800" height="420" rx="32" fill="url(#med-bg)"/>

  <!-- TABLET — 3D Anatomy Viewer -->
  <g filter="url(#med-shadow)">
    <rect x="28" y="22" width="364" height="280" rx="20" fill="#E5E5E5"/>
    <rect x="30" y="24" width="360" height="276" rx="18" fill="#F5F5F5"/>
    <rect x="42" y="38" width="336" height="248" rx="6" fill="white"/>
    <circle cx="210" cy="31" r="3" fill="#D4D4D4"/>
    <g clip-path="url(#med-tab-clip)">
      <rect x="42" y="38" width="336" height="36" fill="#FAFAFA"/>
      <text x="58" y="62" font-family="system-ui" font-size="11" fill="#0F172A" font-weight="700">3D Anatomy Lab</text>
      <rect x="310" y="48" width="56" height="20" rx="10" fill="#F0FDFA"/>
      <text x="338" y="62" font-family="system-ui" font-size="8" fill="#0D9488" text-anchor="middle" font-weight="600">Share</text>
      <rect x="42" y="74" width="90" height="212" fill="#FAFAFA"/>
      <g transform="translate(50, 84)">
        <rect x="0" y="0" width="74" height="28" rx="14" fill="#0D9488"/>
        <text x="37" y="18" font-family="system-ui" font-size="8" fill="white" text-anchor="middle" font-weight="600">Heart</text>
        <rect x="0" y="36" width="74" height="28" rx="14" fill="white" stroke="#E5E7EB"/>
        <text x="37" y="54" font-family="system-ui" font-size="8" fill="#666" text-anchor="middle">Lungs</text>
        <rect x="0" y="72" width="74" height="28" rx="14" fill="white" stroke="#E5E7EB"/>
        <text x="37" y="90" font-family="system-ui" font-size="8" fill="#666" text-anchor="middle">Brain</text>
        <rect x="0" y="108" width="74" height="28" rx="14" fill="white" stroke="#E5E7EB"/>
        <text x="37" y="126" font-family="system-ui" font-size="8" fill="#666" text-anchor="middle">Skeleton</text>
        <rect x="0" y="144" width="74" height="28" rx="14" fill="white" stroke="#E5E7EB"/>
        <text x="37" y="162" font-family="system-ui" font-size="8" fill="#666" text-anchor="middle">Muscles</text>
      </g>
      <rect x="132" y="74" width="160" height="212" fill="#FAFAFF"/>
      <g transform="translate(172, 115)">
        <ellipse cx="40" cy="120" rx="35" ry="8" fill="#FEE2E2" opacity="0.5"/>
        <path d="M35,10 Q30,-10 20,5 Q15,15 25,20" fill="#DC2626" stroke="#B91C1C" stroke-width="0.5"/>
        <path d="M45,10 Q55,-5 55,15 Q55,25 50,20" fill="#EF4444" stroke="#DC2626" stroke-width="0.5"/>
        <path d="M20,20 Q5,40 15,75 Q25,100 40,110 Q45,100 50,80 L40,30 Z" fill="url(#med-heart)"/>
        <path d="M40,30 L50,80 Q55,100 60,95 Q75,70 65,40 Q60,20 50,20 Z" fill="url(#med-organ)"/>
        <path d="M28,35 Q25,50 30,65" stroke="white" stroke-width="2" fill="none" opacity="0.3" stroke-linecap="round"/>
        <path d="M30,40 Q35,55 28,70" stroke="#FCA5A5" stroke-width="1.5" fill="none" stroke-linecap="round"/>
        <path d="M50,35 Q55,50 52,65" stroke="#FCA5A5" stroke-width="1" fill="none" stroke-linecap="round"/>
        <line x1="55" y1="45" x2="78" y2="30" stroke="#0D9488" stroke-width="1" stroke-dasharray="2,2"/>
        <rect x="78" y="20" width="72" height="22" rx="11" fill="white" stroke="#0D9488" stroke-width="1"/>
        <text x="114" y="35" font-family="system-ui" font-size="7" fill="#0D9488" text-anchor="middle" font-weight="600">Right Ventricle</text>
        <line x1="22" y1="55" x2="-5" y2="42" stroke="#0D9488" stroke-width="1" stroke-dasharray="2,2"/>
        <rect x="-60" y="32" width="58" height="22" rx="11" fill="white" stroke="#0D9488" stroke-width="1"/>
        <text x="-31" y="47" font-family="system-ui" font-size="7" fill="#0D9488" text-anchor="middle" font-weight="600">Left Atrium</text>
      </g>
      <g transform="translate(150, 250)" opacity="0.5">
        <line x1="0" y1="0" x2="15" y2="0" stroke="#EF4444" stroke-width="1.5"/>
        <line x1="0" y1="0" x2="0" y2="-15" stroke="#22C55E" stroke-width="1.5"/>
        <line x1="0" y1="0" x2="-8" y2="8" stroke="#3B82F6" stroke-width="1.5"/>
        <text x="18" y="3" font-family="system-ui" font-size="7" fill="#EF4444">X</text>
        <text x="-3" y="-18" font-family="system-ui" font-size="7" fill="#22C55E">Y</text>
        <text x="-16" y="14" font-family="system-ui" font-size="7" fill="#3B82F6">Z</text>
      </g>
      <rect x="292" y="74" width="86" height="212" fill="#FAFAFA"/>
      <g transform="translate(300, 86)">
        <text x="0" y="0" font-family="system-ui" font-size="8" fill="#0F172A" font-weight="700">Properties</text>
        <text x="0" y="20" font-family="system-ui" font-size="7" fill="#94A3B8">Opacity</text>
        <rect x="0" y="26" width="70" height="4" rx="2" fill="#E5E7EB"/>
        <rect x="0" y="26" width="50" height="4" rx="2" fill="#0D9488"/>
        <circle cx="50" cy="28" r="5" fill="white" stroke="#0D9488" stroke-width="1.5"/>
        <text x="0" y="50" font-family="system-ui" font-size="7" fill="#94A3B8">Cross Section</text>
        <rect x="0" y="56" width="70" height="4" rx="2" fill="#E5E7EB"/>
        <rect x="0" y="56" width="30" height="4" rx="2" fill="#7B61FF"/>
        <circle cx="30" cy="58" r="5" fill="white" stroke="#7B61FF" stroke-width="1.5"/>
        <text x="0" y="82" font-family="system-ui" font-size="7" fill="#94A3B8">Animation</text>
        <rect x="0" y="90" width="70" height="22" rx="11" fill="#F0FDFA" stroke="#CCFBF1"/>
        <text x="35" y="105" font-family="system-ui" font-size="7" fill="#0D9488" text-anchor="middle" font-weight="600">Play Heartbeat</text>
        <text x="0" y="132" font-family="system-ui" font-size="7" fill="#94A3B8">Labels</text>
        <rect x="0" y="138" width="32" height="16" rx="8" fill="#0D9488"/>
        <circle cx="22" cy="146" r="5" fill="white"/>
      </g>
    </g>
  </g>
  <rect x="150" y="310" width="120" height="18" rx="9" fill="#CCFBF1"/>
  <text x="210" y="323" font-family="system-ui" font-size="7" fill="#0D9488" text-anchor="middle" font-weight="600">Built with SceneView</text>

  <!-- PHONE — Molecular Viewer -->
  <g transform="translate(520, 20)" filter="url(#med-shadow)">
    <rect x="20" y="20" width="200" height="360" rx="28" fill="#E5E5E5"/>
    <rect x="22" y="22" width="196" height="356" rx="26" fill="#F5F5F5"/>
    <rect x="32" y="38" width="176" height="320" rx="6" fill="white"/>
    <rect x="85" y="24" width="70" height="18" rx="9" fill="#E5E5E5"/>
    <g clip-path="url(#med-phone-clip)">
      <rect x="552" y="58" width="176" height="22" fill="#FAFAFA"/>
      <text x="566" y="73" font-family="system-ui" font-size="8" fill="#666" font-weight="600">9:41</text>
      <rect x="552" y="80" width="176" height="34" fill="white"/>
      <text x="566" y="102" font-family="system-ui" font-size="10" fill="#0F172A" font-weight="700">Caffeine — C8H10N4O2</text>
      <rect x="562" y="120" width="156" height="170" rx="18" fill="#FAFAFF" stroke="#E9D5FF" stroke-width="0.5"/>
      <g transform="translate(600, 165)">
        <line x1="0" y1="0" x2="30" y2="-20" stroke="#D4D4D8" stroke-width="2"/>
        <line x1="30" y1="-20" x2="60" y2="0" stroke="#D4D4D8" stroke-width="2"/>
        <line x1="60" y1="0" x2="60" y2="35" stroke="#D4D4D8" stroke-width="2"/>
        <line x1="60" y1="35" x2="30" y2="55" stroke="#D4D4D8" stroke-width="2"/>
        <line x1="30" y1="55" x2="0" y2="35" stroke="#D4D4D8" stroke-width="2"/>
        <line x1="0" y1="35" x2="0" y2="0" stroke="#D4D4D8" stroke-width="2"/>
        <line x1="30" y1="-20" x2="30" y2="-50" stroke="#D4D4D8" stroke-width="2"/>
        <line x1="60" y1="0" x2="90" y2="-10" stroke="#D4D4D8" stroke-width="2"/>
        <line x1="0" y1="0" x2="-25" y2="-15" stroke="#D4D4D8" stroke-width="2"/>
        <line x1="30" y1="55" x2="30" y2="80" stroke="#D4D4D8" stroke-width="2"/>
        <circle cx="0" cy="0" r="8" fill="#404040"/>
        <circle cx="30" cy="-20" r="8" fill="#404040"/>
        <circle cx="60" cy="0" r="8" fill="#404040"/>
        <circle cx="60" cy="35" r="8" fill="#404040"/>
        <circle cx="30" cy="55" r="8" fill="#404040"/>
        <circle cx="0" cy="35" r="8" fill="#404040"/>
        <circle cx="30" cy="-50" r="7" fill="#3B82F6" filter="url(#med-glow)"/>
        <circle cx="90" cy="-10" r="7" fill="#3B82F6" filter="url(#med-glow)"/>
        <circle cx="-25" cy="-15" r="7" fill="#EF4444" filter="url(#med-glow)"/>
        <circle cx="30" cy="80" r="7" fill="#EF4444" filter="url(#med-glow)"/>
        <text x="0" y="3" font-family="system-ui" font-size="6" fill="white" text-anchor="middle" font-weight="700">C</text>
        <text x="30" y="-17" font-family="system-ui" font-size="6" fill="white" text-anchor="middle" font-weight="700">C</text>
        <text x="60" y="3" font-family="system-ui" font-size="6" fill="white" text-anchor="middle" font-weight="700">C</text>
        <text x="30" y="-47" font-family="system-ui" font-size="6" fill="white" text-anchor="middle" font-weight="700">N</text>
        <text x="90" y="-7" font-family="system-ui" font-size="6" fill="white" text-anchor="middle" font-weight="700">N</text>
        <text x="-25" y="-12" font-family="system-ui" font-size="6" fill="white" text-anchor="middle" font-weight="700">O</text>
        <text x="30" y="83" font-family="system-ui" font-size="6" fill="white" text-anchor="middle" font-weight="700">O</text>
      </g>
      <g transform="translate(572, 300)">
        <text x="0" y="0" font-family="system-ui" font-size="7" fill="#94A3B8" font-weight="600">Legend</text>
        <circle cx="6" cy="14" r="4" fill="#404040"/><text x="16" y="17" font-family="system-ui" font-size="7" fill="#666">Carbon</text>
        <circle cx="56" cy="14" r="4" fill="#3B82F6"/><text x="66" y="17" font-family="system-ui" font-size="7" fill="#666">Nitrogen</text>
        <circle cx="116" cy="14" r="4" fill="#EF4444"/><text x="126" y="17" font-family="system-ui" font-size="7" fill="#666">Oxygen</text>
      </g>
      <g transform="translate(572, 328)">
        <rect x="0" y="0" width="50" height="22" rx="11" fill="url(#med-btn)"/>
        <text x="25" y="15" font-family="system-ui" font-size="8" fill="white" text-anchor="middle" font-weight="600">Rotate</text>
        <rect x="56" y="0" width="40" height="22" rx="11" fill="#F0F9FF" stroke="#BAE6FD"/>
        <text x="76" y="15" font-family="system-ui" font-size="8" fill="#0D9488" text-anchor="middle" font-weight="600">VR</text>
        <rect x="102" y="0" width="44" height="22" rx="11" fill="#F0F9FF" stroke="#BAE6FD"/>
        <text x="124" y="15" font-family="system-ui" font-size="8" fill="#0D9488" text-anchor="middle" font-weight="600">Quiz</text>
      </g>
    </g>
  </g>
  <rect x="600" y="392" width="120" height="18" rx="9" fill="#CCFBF1"/>
  <text x="660" y="405" font-family="system-ui" font-size="7" fill="#0D9488" text-anchor="middle" font-weight="600">Built with SceneView</text>

  <!-- Floating organ cards -->
  <g transform="translate(420, 60)">
    <rect x="0" y="0" width="68" height="68" rx="18" fill="white" filter="url(#med-shadow)" stroke="#E5E7EB" stroke-width="0.5"/>
    <text x="34" y="36" font-family="system-ui" font-size="22" text-anchor="middle">&#x1FAC0;</text>
    <text x="34" y="54" font-family="system-ui" font-size="7" fill="#666" text-anchor="middle" font-weight="600">Heart</text>
  </g>
  <g transform="translate(435, 145)">
    <rect x="0" y="0" width="68" height="68" rx="18" fill="white" filter="url(#med-shadow)" stroke="#E5E7EB" stroke-width="0.5"/>
    <text x="34" y="36" font-family="system-ui" font-size="22" text-anchor="middle">&#x1F9EC;</text>
    <text x="34" y="54" font-family="system-ui" font-size="7" fill="#666" text-anchor="middle" font-weight="600">DNA</text>
  </g>
  <g transform="translate(420, 230)">
    <rect x="0" y="0" width="68" height="68" rx="18" fill="white" filter="url(#med-shadow)" stroke="#E5E7EB" stroke-width="0.5"/>
    <text x="34" y="36" font-family="system-ui" font-size="22" text-anchor="middle">&#x1F9B4;</text>
    <text x="34" y="54" font-family="system-ui" font-size="7" fill="#666" text-anchor="middle" font-weight="600">Skeleton</text>
  </g>

  <text x="400" y="410" font-family="system-ui" font-size="10" fill="#64748B" text-anchor="middle" font-weight="500">Medical Training · Molecular Science · Interactive 3D Education</text>
</svg>
