<svg xmlns="http://www.w3.org/2000/svg" viewBox="0 0 800 420" fill="none">
  <defs>
    <linearGradient id="ec-bg" x1="0" y1="0" x2="800" y2="420">
      <stop offset="0%" stop-color="#F5F3FF"/>
      <stop offset="50%" stop-color="#FFF7ED"/>
      <stop offset="100%" stop-color="#FFF1F2"/>
    </linearGradient>
    <linearGradient id="ec-sneaker" x1="0" y1="0" x2="1" y2="1">
      <stop offset="0%" stop-color="#7B61FF"/>
      <stop offset="40%" stop-color="#A78BFA"/>
      <stop offset="100%" stop-color="#C4B5FD"/>
    </linearGradient>
    <linearGradient id="ec-ar-btn" x1="0" y1="0" x2="1" y2="0">
      <stop offset="0%" stop-color="#7B61FF"/>
      <stop offset="100%" stop-color="#A78BFA"/>
    </linearGradient>
    <linearGradient id="ec-sofa" x1="0" y1="0" x2="1" y2="1">
      <stop offset="0%" stop-color="#F59E0B"/>
      <stop offset="50%" stop-color="#D97706"/>
      <stop offset="100%" stop-color="#B45309"/>
    </linearGradient>
    <filter id="ec-shadow" x="-8%" y="-8%" width="116%" height="124%">
      <feDropShadow dx="0" dy="8" stdDeviation="12" flood-color="#7B61FF" flood-opacity="0.15"/>
    </filter>
    <filter id="ec-shadow-sm" x="-4%" y="-4%" width="108%" height="112%">
      <feDropShadow dx="0" dy="4" stdDeviation="6" flood-color="#000" flood-opacity="0.08"/>
    </filter>
    <clipPath id="ec-phone-clip"><rect x="82" y="38" width="196" height="344" rx="4"/></clipPath>
    <clipPath id="ec-tablet-clip"><rect x="492" y="58" width="256" height="304" rx="4"/></clipPath>
  </defs>

  <rect width="800" height="420" rx="32" fill="url(#ec-bg)"/>

  <!-- PHONE — 3D Product Viewer -->
  <g filter="url(#ec-shadow)">
    <rect x="70" y="20" width="220" height="380" rx="28" fill="#1A1A1A"/>
    <rect x="72" y="22" width="216" height="376" rx="26" fill="#2A2A2A"/>
    <rect x="82" y="38" width="196" height="344" rx="8" fill="#FAFAFA"/>
    <rect x="145" y="24" width="70" height="18" rx="9" fill="#1A1A1A"/>
    <circle cx="180" cy="33" r="4" fill="#333"/>
    <g clip-path="url(#ec-phone-clip)">
      <rect x="82" y="38" width="196" height="24" fill="#FAFAFA"/>
      <text x="96" y="54" font-family="system-ui" font-size="9" fill="#666" font-weight="600">9:41</text>
      <text x="252" y="54" font-family="system-ui" font-size="9" fill="#666" text-anchor="end" font-weight="500">100%</text>
      <rect x="82" y="62" width="196" height="36" fill="white"/>
      <text x="100" y="84" font-family="system-ui" font-size="11" fill="#1A1A1A" font-weight="700">Nike Air Max 90</text>
      <text x="254" y="84" font-family="system-ui" font-size="10" fill="#7B61FF" text-anchor="end" font-weight="600">$189</text>
      <rect x="92" y="104" width="176" height="160" rx="20" fill="#F5F3FF"/>
      <rect x="92" y="104" width="176" height="160" rx="20" fill="none" stroke="#E9D5FF" stroke-width="1"/>
      <g transform="translate(130, 140)">
        <ellipse cx="50" cy="95" rx="45" ry="8" fill="#DDD6FE" opacity="0.5"/>
        <path d="M10,75 Q0,70 5,60 L95,55 Q105,60 100,75 Z" fill="#E9D5FF" stroke="#C4B5FD" stroke-width="0.5"/>
        <path d="M15,60 Q10,30 30,20 Q50,10 70,15 Q90,20 95,40 L95,55 L5,60 Z" fill="url(#ec-sneaker)"/>
        <path d="M20,50 Q45,35 85,30" stroke="white" stroke-width="3" fill="none" stroke-linecap="round" opacity="0.9"/>
        <path d="M55,18 Q58,5 65,8 Q72,12 70,20" fill="#8B5CF6"/>
        <circle cx="50" cy="25" r="2" fill="white" opacity="0.7"/>
        <circle cx="55" cy="20" r="2" fill="white" opacity="0.7"/>
        <circle cx="60" cy="16" r="2" fill="white" opacity="0.7"/>
      </g>
      <g transform="translate(155, 245)" opacity="0.5">
        <path d="M-8,0 A8,8 0 1,1 6,6" stroke="#7B61FF" stroke-width="1.5" fill="none" stroke-linecap="round"/>
        <polygon points="6,3 9,7 3,7" fill="#7B61FF"/>
      </g>
      <text x="180" y="260" font-family="system-ui" font-size="7" fill="#A78BFA" text-anchor="middle">Drag to rotate</text>
      <g transform="translate(105, 272)">
        <circle cx="0" cy="0" r="10" fill="#7B61FF" stroke="white" stroke-width="2"/>
        <circle cx="0" cy="0" r="12" fill="none" stroke="#7B61FF" stroke-width="1.5"/>
        <circle cx="28" cy="0" r="10" fill="#1A1A1A" stroke="white" stroke-width="2"/>
        <circle cx="56" cy="0" r="10" fill="#EF4444" stroke="white" stroke-width="2"/>
        <circle cx="84" cy="0" r="10" fill="#F5F5F4" stroke="#DDD" stroke-width="2"/>
        <circle cx="112" cy="0" r="10" fill="#059669" stroke="white" stroke-width="2"/>
      </g>
      <g transform="translate(92, 298)">
        <text x="13" y="10" font-family="system-ui" font-size="8" fill="#666" font-weight="600">Size</text>
        <rect x="45" y="-2" width="28" height="18" rx="9" fill="#F5F3FF" stroke="#E9D5FF"/>
        <text x="59" y="11" font-family="system-ui" font-size="8" fill="#666" text-anchor="middle">8</text>
        <rect x="78" y="-2" width="28" height="18" rx="9" fill="#7B61FF"/>
        <text x="92" y="11" font-family="system-ui" font-size="8" fill="white" text-anchor="middle" font-weight="600">9</text>
        <rect x="111" y="-2" width="28" height="18" rx="9" fill="#F5F3FF" stroke="#E9D5FF"/>
        <text x="125" y="11" font-family="system-ui" font-size="8" fill="#666" text-anchor="middle">10</text>
        <rect x="144" y="-2" width="28" height="18" rx="9" fill="#F5F3FF" stroke="#E9D5FF"/>
        <text x="158" y="11" font-family="system-ui" font-size="8" fill="#666" text-anchor="middle">11</text>
      </g>
      <rect x="92" y="324" width="85" height="32" rx="16" fill="url(#ec-ar-btn)"/>
      <text x="134" y="344" font-family="system-ui" font-size="10" fill="white" text-anchor="middle" font-weight="700">View in AR</text>
      <rect x="183" y="324" width="85" height="32" rx="16" fill="#1A1A1A"/>
      <text x="225" y="344" font-family="system-ui" font-size="10" fill="white" text-anchor="middle" font-weight="700">Add to Cart</text>
      <rect x="150" y="372" width="60" height="4" rx="2" fill="#CCC"/>
    </g>
  </g>
  <rect x="100" y="390" width="120" height="18" rx="9" fill="#EDE9FE"/>
  <text x="160" y="403" font-family="system-ui" font-size="7" fill="#7B61FF" text-anchor="middle" font-weight="600">Built with SceneView</text>

  <!-- Center floating badges -->
  <g transform="translate(320, 80)">
    <rect x="0" y="0" width="130" height="28" rx="14" fill="white" filter="url(#ec-shadow-sm)"/>
    <circle cx="16" cy="14" r="8" fill="#DCFCE7"/>
    <text x="16" y="18" font-family="system-ui" font-size="8" fill="#166534" text-anchor="middle">&#x2713;</text>
    <text x="36" y="18" font-family="system-ui" font-size="9" fill="#333" font-weight="600">60fps rendering</text>
  </g>
  <g transform="translate(330, 140)">
    <rect x="0" y="0" width="120" height="28" rx="14" fill="white" filter="url(#ec-shadow-sm)"/>
    <circle cx="16" cy="14" r="8" fill="#EDE9FE"/>
    <text x="16" y="18" font-family="system-ui" font-size="8" fill="#7B61FF" text-anchor="middle">3D</text>
    <text x="36" y="18" font-family="system-ui" font-size="9" fill="#333" font-weight="600">PBR materials</text>
  </g>
  <g transform="translate(340, 200)">
    <rect x="0" y="0" width="115" height="28" rx="14" fill="white" filter="url(#ec-shadow-sm)"/>
    <circle cx="16" cy="14" r="8" fill="#FFF7ED"/>
    <text x="16" y="18" font-family="system-ui" font-size="8" fill="#D97706" text-anchor="middle">AR</text>
    <text x="36" y="18" font-family="system-ui" font-size="9" fill="#333" font-weight="600">Try before buy</text>
  </g>
  <g transform="translate(330, 260)">
    <rect x="0" y="0" width="126" height="28" rx="14" fill="white" filter="url(#ec-shadow-sm)"/>
    <circle cx="16" cy="14" r="8" fill="#FFF1F2"/>
    <text x="16" y="18" font-family="system-ui" font-size="8" fill="#E11D48" text-anchor="middle">&#x2764;</text>
    <text x="36" y="18" font-family="system-ui" font-size="9" fill="#333" font-weight="600">+32% conversion</text>
  </g>

  <!-- TABLET — AR Room View -->
  <g filter="url(#ec-shadow)">
    <rect x="478" y="40" width="280" height="340" rx="22" fill="#1A1A1A"/>
    <rect x="480" y="42" width="276" height="336" rx="20" fill="#2A2A2A"/>
    <rect x="492" y="58" width="252" height="304" rx="6" fill="#FFFBEB"/>
    <circle cx="618" cy="50" r="3" fill="#333"/>
    <g clip-path="url(#ec-tablet-clip)">
      <rect x="492" y="240" width="256" height="122" fill="#E8DDD0"/>
      <line x1="492" y1="260" x2="748" y2="260" stroke="#DDD0C0" stroke-width="0.5"/>
      <line x1="492" y1="290" x2="748" y2="290" stroke="#DDD0C0" stroke-width="0.5"/>
      <line x1="492" y1="320" x2="748" y2="320" stroke="#DDD0C0" stroke-width="0.5"/>
      <rect x="492" y="58" width="256" height="182" fill="#F5F0EB"/>
      <rect x="492" y="232" width="256" height="8" fill="#E0D5C8"/>
      <rect x="630" y="80" width="80" height="100" rx="4" fill="#E0F2FE" stroke="#D5C8B8" stroke-width="1.5"/>
      <line x1="670" y1="80" x2="670" y2="180" stroke="#D5C8B8" stroke-width="1"/>
      <line x1="630" y1="130" x2="710" y2="130" stroke="#D5C8B8" stroke-width="1"/>
      <g opacity="0.35">
        <circle cx="540" cy="270" r="2" fill="#7B61FF"/><circle cx="570" cy="270" r="2" fill="#7B61FF"/>
        <circle cx="600" cy="270" r="2" fill="#7B61FF"/><circle cx="630" cy="270" r="2" fill="#7B61FF"/>
        <circle cx="540" cy="295" r="2" fill="#7B61FF"/><circle cx="570" cy="295" r="2" fill="#7B61FF"/>
        <circle cx="600" cy="295" r="2" fill="#7B61FF"/><circle cx="630" cy="295" r="2" fill="#7B61FF"/>
        <circle cx="540" cy="320" r="2" fill="#7B61FF"/><circle cx="570" cy="320" r="2" fill="#7B61FF"/>
        <circle cx="600" cy="320" r="2" fill="#7B61FF"/><circle cx="630" cy="320" r="2" fill="#7B61FF"/>
      </g>
      <g transform="translate(530, 258)">
        <ellipse cx="55" cy="62" rx="60" ry="6" fill="rgba(0,0,0,0.08)"/>
        <rect x="0" y="15" width="110" height="40" rx="8" fill="url(#ec-sofa)"/>
        <rect x="2" y="0" width="106" height="22" rx="6" fill="#D97706"/>
        <rect x="-8" y="5" width="16" height="50" rx="6" fill="#D97706"/>
        <rect x="102" y="5" width="16" height="50" rx="6" fill="#B45309"/>
        <rect x="8" y="20" width="30" height="28" rx="5" fill="#FBBF24" opacity="0.5"/>
        <rect x="42" y="20" width="30" height="28" rx="5" fill="#FBBF24" opacity="0.4"/>
        <rect x="76" y="20" width="28" height="28" rx="5" fill="#FBBF24" opacity="0.3"/>
        <ellipse cx="20" cy="10" rx="12" ry="10" fill="#FCD34D"/>
        <ellipse cx="90" cy="10" rx="12" ry="10" fill="#FDE68A"/>
      </g>
      <ellipse cx="585" cy="320" rx="65" ry="10" fill="none" stroke="#7B61FF" stroke-width="1.5" stroke-dasharray="4,3" opacity="0.6"/>
      <rect x="502" y="66" width="232" height="28" rx="14" fill="rgba(0,0,0,0.5)"/>
      <circle cx="518" cy="80" r="6" fill="#EF4444"/>
      <text x="534" y="84" font-family="system-ui" font-size="8" fill="white" font-weight="600">AR Mode</text>
      <text x="720" y="84" font-family="system-ui" font-size="8" fill="white" text-anchor="end" opacity="0.8">Plane detected</text>
      <rect x="590" y="246" width="64" height="20" rx="10" fill="rgba(255,255,255,0.92)" filter="url(#ec-shadow-sm)"/>
      <text x="622" y="260" font-family="system-ui" font-size="8" fill="#333" text-anchor="middle" font-weight="600">2.1m wide</text>
      <rect x="532" y="332" width="172" height="24" rx="12" fill="rgba(255,255,255,0.92)"/>
      <circle cx="560" cy="344" r="8" fill="#F59E0B"/><circle cx="585" cy="344" r="8" fill="#3B82F6"/>
      <circle cx="610" cy="344" r="8" fill="#10B981"/><circle cx="635" cy="344" r="8" fill="#8B5CF6"/>
      <text x="665" y="348" font-family="system-ui" font-size="7" fill="#666" font-weight="600">Colors</text>
    </g>
  </g>
  <rect x="558" y="370" width="120" height="18" rx="9" fill="#EDE9FE"/>
  <text x="618" y="383" font-family="system-ui" font-size="7" fill="#7B61FF" text-anchor="middle" font-weight="600">Built with SceneView</text>
</svg>
