<svg xmlns="http://www.w3.org/2000/svg" viewBox="0 0 800 420" fill="none">
  <defs>
    <linearGradient id="re-bg" x1="0" y1="0" x2="800" y2="420">
      <stop offset="0%" stop-color="#FFFBEB"/>
      <stop offset="50%" stop-color="#FFF7ED"/>
      <stop offset="100%" stop-color="#FFF1F2"/>
    </linearGradient>
    <linearGradient id="re-btn" x1="0" y1="0" x2="1" y2="0">
      <stop offset="0%" stop-color="#D97706"/>
      <stop offset="100%" stop-color="#F59E0B"/>
    </linearGradient>
    <linearGradient id="re-wall" x1="0" y1="0" x2="0" y2="1">
      <stop offset="0%" stop-color="#FEF3C7"/>
      <stop offset="100%" stop-color="#FDE68A"/>
    </linearGradient>
    <linearGradient id="re-floor" x1="0" y1="0" x2="0" y2="1">
      <stop offset="0%" stop-color="#D6C4A8"/>
      <stop offset="100%" stop-color="#C8B898"/>
    </linearGradient>
    <linearGradient id="re-portal" x1="0" y1="0" x2="1" y2="1">
      <stop offset="0%" stop-color="#7B61FF" stop-opacity="0.3"/>
      <stop offset="100%" stop-color="#A78BFA" stop-opacity="0.1"/>
    </linearGradient>
    <filter id="re-shadow" x="-6%" y="-6%" width="112%" height="118%">
      <feDropShadow dx="0" dy="8" stdDeviation="12" flood-color="#D97706" flood-opacity="0.12"/>
    </filter>
    <filter id="re-shadow-sm" x="-4%" y="-4%" width="108%" height="112%">
      <feDropShadow dx="0" dy="4" stdDeviation="5" flood-color="#000" flood-opacity="0.06"/>
    </filter>
    <clipPath id="re-phone-clip"><rect x="42" y="38" width="196" height="344" rx="4"/></clipPath>
    <clipPath id="re-tab-clip"><rect x="492" y="48" width="272" height="224" rx="4"/></clipPath>
  </defs>

  <rect width="800" height="420" rx="32" fill="url(#re-bg)"/>

  <!-- PHONE — AR Furniture Placement -->
  <g filter="url(#re-shadow)">
    <rect x="30" y="20" width="220" height="380" rx="28" fill="#1A1A1A"/>
    <rect x="32" y="22" width="216" height="376" rx="26" fill="#2A2A2A"/>
    <rect x="42" y="38" width="196" height="344" rx="8" fill="#FAF5EE"/>
    <rect x="105" y="24" width="70" height="18" rx="9" fill="#1A1A1A"/>
    <g clip-path="url(#re-phone-clip)">
      <rect x="42" y="38" width="196" height="200" fill="#F5F0EB"/>
      <rect x="42" y="238" width="196" height="144" fill="#E8DDD0"/>
      <line x1="42" y1="260" x2="238" y2="260" stroke="#DDD0C0" stroke-width="0.5"/>
      <line x1="42" y1="290" x2="238" y2="290" stroke="#DDD0C0" stroke-width="0.5"/>
      <line x1="42" y1="320" x2="238" y2="320" stroke="#DDD0C0" stroke-width="0.5"/>
      <line x1="42" y1="350" x2="238" y2="350" stroke="#DDD0C0" stroke-width="0.5"/>
      <rect x="42" y="230" width="196" height="8" fill="#E0D5C8"/>
      <rect x="150" y="60" width="70" height="90" rx="3" fill="#E0F2FE" stroke="#D5C8B8" stroke-width="1.5"/>
      <line x1="185" y1="60" x2="185" y2="150" stroke="#D5C8B8" stroke-width="1"/>
      <line x1="150" y1="105" x2="220" y2="105" stroke="#D5C8B8" stroke-width="1"/>
      <rect x="142" y="55" width="86" height="8" rx="2" fill="#D5C8B8"/>
      <path d="M142,63 Q147,75 142,85 Q147,95 142,105" stroke="#E5DDD0" stroke-width="4" fill="none"/>
      <!-- Mid-century table -->
      <g transform="translate(75, 245)">
        <ellipse cx="50" cy="45" rx="50" ry="6" fill="rgba(0,0,0,0.06)"/>
        <line x1="12" y1="20" x2="8" y2="42" stroke="#92400E" stroke-width="3" stroke-linecap="round"/>
        <line x1="88" y1="20" x2="92" y2="42" stroke="#92400E" stroke-width="3" stroke-linecap="round"/>
        <line x1="25" y1="20" x2="22" y2="42" stroke="#78350F" stroke-width="3" stroke-linecap="round"/>
        <line x1="75" y1="20" x2="78" y2="42" stroke="#78350F" stroke-width="3" stroke-linecap="round"/>
        <ellipse cx="50" cy="16" rx="50" ry="8" fill="#B45309"/>
        <ellipse cx="50" cy="14" rx="48" ry="7" fill="#D97706"/>
        <path d="M45,2 Q43,-8 46,-14 Q50,-18 54,-14 Q57,-8 55,2 Z" fill="#7B61FF" opacity="0.7"/>
        <ellipse cx="50" cy="2" rx="6" ry="3" fill="#8B5CF6" opacity="0.7"/>
        <path d="M50,-14 Q48,-22 44,-26" stroke="#22C55E" stroke-width="1.5" fill="none"/>
        <path d="M50,-14 Q52,-24 56,-26" stroke="#16A34A" stroke-width="1.5" fill="none"/>
        <path d="M50,-14 Q50,-28 50,-30" stroke="#15803D" stroke-width="1.5" fill="none"/>
      </g>
      <ellipse cx="140" cy="310" rx="55" ry="8" fill="none" stroke="#D97706" stroke-width="1.5" stroke-dasharray="4,3" opacity="0.6"/>
      <!-- Chair -->
      <g transform="translate(155, 280)">
        <ellipse cx="20" cy="35" rx="18" ry="4" fill="rgba(0,0,0,0.06)"/>
        <line x1="5" y1="15" x2="3" y2="34" stroke="#78350F" stroke-width="2" stroke-linecap="round"/>
        <line x1="35" y1="15" x2="37" y2="34" stroke="#78350F" stroke-width="2" stroke-linecap="round"/>
        <rect x="0" y="10" width="40" height="8" rx="3" fill="#D97706"/>
        <rect x="2" y="-10" width="36" height="22" rx="4" fill="#F59E0B"/>
        <rect x="6" y="-6" width="12" height="14" rx="2" fill="#FCD34D" opacity="0.3"/>
        <rect x="22" y="-6" width="12" height="14" rx="2" fill="#FCD34D" opacity="0.3"/>
      </g>
      <rect x="52" y="46" width="176" height="28" rx="14" fill="rgba(0,0,0,0.5)"/>
      <text x="68" y="64" font-family="system-ui" font-size="8" fill="white" font-weight="600">AR Staging</text>
      <rect x="158" y="52" width="60" height="16" rx="8" fill="rgba(217,119,6,0.8)"/>
      <text x="188" y="64" font-family="system-ui" font-size="7" fill="white" text-anchor="middle" font-weight="600">3 items</text>
      <g transform="translate(62, 166)">
        <rect x="0" y="0" width="156" height="40" rx="20" fill="rgba(255,255,255,0.92)" filter="url(#re-shadow-sm)"/>
        <text x="78" y="18" font-family="system-ui" font-size="8" fill="#333" text-anchor="middle" font-weight="600">Pinch to resize · Rotate to turn</text>
        <text x="78" y="32" font-family="system-ui" font-size="7" fill="#94A3B8" text-anchor="middle">Tap floor to place furniture</text>
      </g>
      <g transform="translate(52, 352)">
        <rect x="0" y="0" width="176" height="26" rx="13" fill="rgba(255,255,255,0.95)"/>
        <rect x="4" y="3" width="40" height="20" rx="10" fill="#D97706"/>
        <text x="24" y="17" font-family="system-ui" font-size="7" fill="white" text-anchor="middle" font-weight="600">Table</text>
        <text x="66" y="17" font-family="system-ui" font-size="7" fill="#666" text-anchor="middle">Chair</text>
        <text x="104" y="17" font-family="system-ui" font-size="7" fill="#666" text-anchor="middle">Sofa</text>
        <text x="144" y="17" font-family="system-ui" font-size="7" fill="#666" text-anchor="middle">Lamp</text>
      </g>
    </g>
  </g>
  <rect x="80" y="395" width="120" height="18" rx="9" fill="#FEF3C7"/>
  <text x="140" y="408" font-family="system-ui" font-size="7" fill="#D97706" text-anchor="middle" font-weight="600">Built with SceneView</text>

  <!-- Feature callouts -->
  <g transform="translate(290, 55)">
    <rect x="0" y="0" width="140" height="32" rx="16" fill="white" filter="url(#re-shadow-sm)"/>
    <text x="16" y="22" font-family="system-ui" font-size="14">&#x1F3E0;</text>
    <text x="40" y="21" font-family="system-ui" font-size="9" fill="#333" font-weight="600">3D Floor Plans</text>
  </g>
  <g transform="translate(300, 115)">
    <rect x="0" y="0" width="148" height="32" rx="16" fill="white" filter="url(#re-shadow-sm)"/>
    <text x="16" y="22" font-family="system-ui" font-size="14">&#x1F6AA;</text>
    <text x="40" y="21" font-family="system-ui" font-size="9" fill="#333" font-weight="600">Portal walkthrough</text>
  </g>
  <g transform="translate(290, 175)">
    <rect x="0" y="0" width="155" height="32" rx="16" fill="white" filter="url(#re-shadow-sm)"/>
    <text x="16" y="22" font-family="system-ui" font-size="14">&#x2600;&#xFE0F;</text>
    <text x="40" y="21" font-family="system-ui" font-size="9" fill="#333" font-weight="600">Lighting conditions</text>
  </g>
  <g transform="translate(300, 235)">
    <rect x="0" y="0" width="130" height="32" rx="16" fill="white" filter="url(#re-shadow-sm)"/>
    <text x="16" y="22" font-family="system-ui" font-size="14">&#x1F4D0;</text>
    <text x="40" y="21" font-family="system-ui" font-size="9" fill="#333" font-weight="600">AR Measuring</text>
  </g>

  <!-- TABLET — 3D Floor Plan -->
  <g filter="url(#re-shadow)">
    <rect x="478" y="30" width="300" height="260" rx="20" fill="#E5E5E5"/>
    <rect x="480" y="32" width="296" height="256" rx="18" fill="#F5F5F5"/>
    <rect x="492" y="48" width="272" height="224" rx="6" fill="white"/>
    <circle cx="628" cy="41" r="3" fill="#D4D4D4"/>
    <g clip-path="url(#re-tab-clip)">
      <rect x="492" y="48" width="272" height="30" fill="#FAFAFA"/>
      <text x="508" y="68" font-family="system-ui" font-size="9" fill="#0F172A" font-weight="700">123 Oak Ave — Floor Plan</text>
      <rect x="700" y="54" width="52" height="18" rx="9" fill="#FEF3C7"/>
      <text x="726" y="67" font-family="system-ui" font-size="7" fill="#D97706" text-anchor="middle" font-weight="600">3D View</text>
      <rect x="492" y="78" width="272" height="194" fill="#FFFCF5"/>
      <g transform="translate(560, 110)">
        <rect x="-5" y="85" width="160" height="8" rx="4" fill="#F5E6D0" opacity="0.5"/>
        <path d="M0,70 L60,40 L140,70 L80,100 Z" fill="url(#re-floor)" stroke="#C8B898" stroke-width="0.5"/>
        <path d="M0,70 L0,20 L60,-10 L60,40 Z" fill="#FEF3C7" stroke="#E5D5B8" stroke-width="0.5"/>
        <path d="M60,40 L60,-10 L140,20 L140,70 Z" fill="url(#re-wall)" stroke="#E5D5B8" stroke-width="0.5"/>
        <rect x="85" y="5" width="25" height="55" rx="2" fill="url(#re-portal)" stroke="#7B61FF" stroke-width="1" stroke-dasharray="3,2"/>
        <rect x="15" y="28" width="30" height="20" rx="2" fill="#E0F2FE" stroke="#C8B898" stroke-width="0.5"/>
        <line x1="30" y1="28" x2="30" y2="48" stroke="#C8B898" stroke-width="0.5"/>
        <path d="M20,72 L20,60 L50,48 L50,60 Z" fill="#D97706" opacity="0.5"/>
        <ellipse cx="90" cy="65" rx="12" ry="6" fill="#92400E" opacity="0.4"/>
        <text x="50" y="58" font-family="system-ui" font-size="7" fill="#78350F" font-weight="600" opacity="0.7">Living Room</text>
        <text x="50" y="68" font-family="system-ui" font-size="6" fill="#92400E" opacity="0.5">24 m2</text>
      </g>
      <rect x="680" y="78" width="84" height="194" fill="#FAFAFA"/>
      <g transform="translate(688, 90)">
        <rect x="0" y="0" width="68" height="22" rx="11" fill="#D97706"/>
        <text x="34" y="15" font-family="system-ui" font-size="7" fill="white" text-anchor="middle" font-weight="600">Living</text>
        <rect x="0" y="28" width="68" height="22" rx="11" fill="white" stroke="#E5E7EB"/>
        <text x="34" y="43" font-family="system-ui" font-size="7" fill="#666" text-anchor="middle">Kitchen</text>
        <rect x="0" y="56" width="68" height="22" rx="11" fill="white" stroke="#E5E7EB"/>
        <text x="34" y="71" font-family="system-ui" font-size="7" fill="#666" text-anchor="middle">Bedroom</text>
        <rect x="0" y="84" width="68" height="22" rx="11" fill="white" stroke="#E5E7EB"/>
        <text x="34" y="99" font-family="system-ui" font-size="7" fill="#666" text-anchor="middle">Bathroom</text>
        <rect x="0" y="118" width="68" height="22" rx="11" fill="white" stroke="#E5E7EB"/>
        <text x="34" y="133" font-family="system-ui" font-size="7" fill="#666" text-anchor="middle">Balcony</text>
      </g>
      <rect x="502" y="246" width="166" height="20" rx="10" fill="rgba(217,119,6,0.1)"/>
      <text x="585" y="260" font-family="system-ui" font-size="7" fill="#D97706" text-anchor="middle" font-weight="500">Total: 85 m2 · 3 rooms · 2nd floor</text>
    </g>
  </g>
  <rect x="568" y="300" width="120" height="18" rx="9" fill="#FEF3C7"/>
  <text x="628" y="313" font-family="system-ui" font-size="7" fill="#D97706" text-anchor="middle" font-weight="600">Built with SceneView</text>

  <!-- Watch -->
  <g transform="translate(500, 330)" filter="url(#re-shadow-sm)">
    <rect x="0" y="0" width="60" height="70" rx="14" fill="#1A1A1A"/>
    <rect x="4" y="8" width="52" height="54" rx="8" fill="#FAF5EE"/>
    <rect x="58" y="22" width="6" height="12" rx="2" fill="#333"/>
    <rect x="10" y="16" width="20" height="16" rx="2" fill="#FDE68A" stroke="#D97706" stroke-width="0.5"/>
    <rect x="32" y="16" width="16" height="16" rx="2" fill="#FEF3C7" stroke="#D97706" stroke-width="0.5"/>
    <rect x="10" y="34" width="38" height="12" rx="2" fill="#FDE68A" stroke="#D97706" stroke-width="0.5"/>
    <text x="30" y="56" font-family="system-ui" font-size="5" fill="#78350F" text-anchor="middle" font-weight="600">Open House 2pm</text>
  </g>

  <!-- TV -->
  <g transform="translate(590, 320)" filter="url(#re-shadow-sm)">
    <rect x="0" y="0" width="170" height="95" rx="8" fill="#1A1A1A"/>
    <rect x="3" y="3" width="164" height="82" rx="4" fill="#FAF5EE"/>
    <rect x="65" y="88" width="40" height="4" rx="1" fill="#666"/>
    <rect x="55" y="92" width="60" height="3" rx="1" fill="#888"/>
    <rect x="8" y="8" width="154" height="72" rx="2" fill="#FFFCF5"/>
    <rect x="8" y="8" width="154" height="50" fill="#FEF3C7"/>
    <path d="M8,58 L8,20 L85,8 L162,20 L162,58 Z" fill="#F5F0EB"/>
    <path d="M8,58 L85,38 L162,58 Z" fill="#E8DDD0"/>
    <rect x="50" y="35" width="60" height="18" rx="3" fill="#D97706" opacity="0.6"/>
    <ellipse cx="85" cy="30" rx="8" ry="4" fill="#92400E" opacity="0.4"/>
    <rect x="40" y="62" width="90" height="14" rx="7" fill="rgba(217,119,6,0.1)"/>
    <text x="85" y="73" font-family="system-ui" font-size="6" fill="#D97706" text-anchor="middle" font-weight="600">Virtual Tour — Living Room</text>
  </g>

  <text x="400" y="410" font-family="system-ui" font-size="10" fill="#92400E" text-anchor="middle" font-weight="500">Virtual Tours · AR Staging · 3D Floor Plans · PortalNode Walkthroughs</text>
</svg>
