<svg xmlns="http://www.w3.org/2000/svg" width="800" height="240" viewBox="0 0 800 240">
  <rect width="800" height="240" fill="#FFFBFE"/>

  <!-- Connections: thin 1px lines with small corner radius -->
  <!-- Scene to ModelNode -->
  <path d="M400 62 L400 80 Q400 86 394 86 L280 86 Q274 86 274 92 L274 108" stroke="#CAC4D0" stroke-width="1" fill="none"/>
  <!-- Scene to LightNode -->
  <path d="M400 62 L400 108" stroke="#CAC4D0" stroke-width="1" fill="none"/>
  <!-- Scene to AnchorNode -->
  <path d="M400 62 L400 80 Q400 86 406 86 L525 86 Q531 86 531 92 L531 108" stroke="#CAC4D0" stroke-width="1" fill="none"/>

  <!-- AnchorNode to child ModelNode -->
  <path d="M531 140 L531 156 Q531 162 525 162 L480 162 Q474 162 474 168 L474 180" stroke="#CAC4D0" stroke-width="1" fill="none"/>
  <!-- AnchorNode to child ViewNode -->
  <path d="M531 140 L531 156 Q531 162 537 162 L582 162 Q588 162 588 168 L588 180" stroke="#CAC4D0" stroke-width="1" fill="none"/>

  <!-- Root: Scene { } -->
  <rect x="340" y="32" width="120" height="30" rx="15" fill="#F4EFF4"/>
  <text x="400" y="52" text-anchor="middle" font-family="'Google Sans', 'Roboto', sans-serif" font-size="13" font-weight="500" fill="#6750A4">Scene { }</text>

  <!-- Level 2: ModelNode -->
  <rect x="230" y="108" width="90" height="26" rx="13" fill="#D0BCFF"/>
  <text x="275" y="125" text-anchor="middle" font-family="'Google Sans', 'Roboto', sans-serif" font-size="10" font-weight="500" fill="#6750A4">ModelNode</text>

  <!-- Level 2: LightNode -->
  <rect x="355" y="108" width="90" height="26" rx="13" fill="#EFB8C8"/>
  <text x="400" y="125" text-anchor="middle" font-family="'Google Sans', 'Roboto', sans-serif" font-size="10" font-weight="500" fill="#7D5260">LightNode</text>

  <!-- Level 2: AnchorNode -->
  <rect x="481" y="108" width="100" height="26" rx="13" fill="#C8E6C9"/>
  <text x="531" y="125" text-anchor="middle" font-family="'Google Sans', 'Roboto', sans-serif" font-size="10" font-weight="500" fill="#4A6741">AnchorNode</text>

  <!-- Level 3: ModelNode (under AnchorNode) -->
  <rect x="433" y="180" width="82" height="24" rx="12" fill="#D0BCFF" opacity="0.6"/>
  <text x="474" y="196" text-anchor="middle" font-family="'Google Sans', 'Roboto', sans-serif" font-size="9" font-weight="500" fill="#6750A4">ModelNode</text>

  <!-- Level 3: ViewNode (under AnchorNode) -->
  <rect x="547" y="180" width="82" height="24" rx="12" fill="#B4C5E4" opacity="0.6"/>
  <text x="588" y="196" text-anchor="middle" font-family="'Google Sans', 'Roboto', sans-serif" font-size="9" font-weight="500" fill="#49454F">ViewNode</text>
</svg>